<?xml version="1.0" encoding="UTF-8" standalone="no"?>
<!-- Created with Inkscape (http://www.inkscape.org/) -->

<svg
   width="210mm"
   height="297mm"
   viewBox="0 0 210 297"
   version="1.1"
   id="svg5"
   inkscape:version="1.1.2 (0a00cf5339, 2022-02-04)"
   sodipodi:docname="fondo-form.png.svg"
   xmlns:inkscape="http://www.inkscape.org/namespaces/inkscape"
   xmlns:sodipodi="http://sodipodi.sourceforge.net/DTD/sodipodi-0.dtd"
   xmlns="http://www.w3.org/2000/svg"
   xmlns:svg="http://www.w3.org/2000/svg">
  <sodipodi:namedview
     id="namedview7"
     pagecolor="#505050"
     bordercolor="#ffffff"
     borderopacity="1"
     inkscape:pageshadow="0"
     inkscape:pageopacity="0"
     inkscape:pagecheckerboard="1"
     inkscape:document-units="mm"
     showgrid="false"
     inkscape:zoom="0.4187009"
     inkscape:cx="449.00787"
     inkscape:cy="545.73563"
     inkscape:window-width="1366"
     inkscape:window-height="704"
     inkscape:window-x="0"
     inkscape:window-y="0"
     inkscape:window-maximized="1"
     inkscape:current-layer="layer1" />
  <defs
     id="defs2">
    <inkscape:perspective
       sodipodi:type="inkscape:persp3d"
       inkscape:vp_x="-23.014936 : 224.34085 : 1"
       inkscape:vp_y="0 : 1000 : 0"
       inkscape:vp_z="186.98506 : 224.34085 : 1"
       inkscape:persp3d-origin="81.985064 : 174.84085 : 1"
       id="perspective8232" />
    <inkscape:perspective
       sodipodi:type="inkscape:persp3d"
       inkscape:vp_x="3.2620213 : 241.20872 : 1"
       inkscape:vp_y="0 : 734.57856 : 0"
       inkscape:vp_z="398.34333 : 272.27507 : 1"
       inkscape:persp3d-origin="87.244 : 52.213422 : 1"
       id="perspective8014" />
    <filter
       inkscape:collect="always"
       style="color-interpolation-filters:sRGB"
       id="filter507"
       x="-0.023925152"
       y="-0.019378007"
       width="1.0474129"
       height="1.0384067">
      <feGaussianBlur
         inkscape:collect="always"
         stdDeviation="7.0373152"
         id="feGaussianBlur509" />
    </filter>
    <filter
       x="-0.06323535"
       width="1.126484"
       y="-0.12435722"
       height="1.2487986"
       inkscape:menu="Non-Realistic 3D Shaders"
       inkscape:menu-tooltip="Comics cartoon drawing effect"
       inkscape:label="Comics"
       style="color-interpolation-filters:sRGB"
       id="filter11255">
      <feGaussianBlur
         in="SourceGraphic"
         stdDeviation="5"
         result="result8"
         id="feGaussianBlur11237" />
      <feComposite
         in2="result8"
         operator="xor"
         result="result19"
         id="feComposite11239" />
      <feComposite
         k2="1"
         operator="arithmetic"
         result="result17"
         in2="result8"
         id="feComposite11241" />
      <feOffset
         result="result18"
         in="SourceGraphic"
         id="feOffset11243" />
      <feDisplacementMap
         in2="result17"
         in="result18"
         xChannelSelector="A"
         yChannelSelector="A"
         scale="100"
         result="result4"
         id="feDisplacementMap11245" />
      <feComposite
         in2="result4"
         result="result2"
         operator="arithmetic"
         in="SourceGraphic"
         k3="1"
         id="feComposite11247" />
      <feComposite
         in2="SourceGraphic"
         result="fbSourceGraphic"
         in="result2"
         operator="in"
         id="feComposite11249" />
      <feComposite
         in2="SourceGraphic"
         operator="in"
         result="result15"
         id="feComposite11251" />
      <feComposite
         result="result16"
         in2="SourceGraphic"
         operator="in"
         in="result15"
         id="feComposite11253" />
    </filter>
  </defs>
  <g
     inkscape:label="Capa 1"
     inkscape:groupmode="layer"
     id="layer1"
     style="display:inline;opacity:0.67472298;mix-blend-mode:overlay;filter:url(#filter507)">
    <path
       sodipodi:type="star"
       style="fill:#4aec91;stroke:#96e718;fill-opacity:1;stroke-opacity:1;opacity:1"
       id="path297"
       inkscape:flatsided="false"
       sodipodi:sides="10"
       sodipodi:cx="260.29172"
       sodipodi:cy="290.81769"
       sodipodi:r1="278.9592"
       sodipodi:r2="324.37115"
       sodipodi:arg1="-0.1398633"
       sodipodi:arg2="0.17429597"
       inkscape:rounded="6.66"
       inkscape:randomized="0.228"
       d="M 588.18694,248.42161 C 486.8011,993.5202 570.84249,-197.94479 541.02192,419.25473 511.20136,1036.4542 1077.0826,-192.02728 562.89931,380.38981 48.71602,952.80691 1119.6019,174.57846 452.77105,480.01287 -214.05974,785.44728 1043.1572,449.64368 342.40228,587.677 -358.3527,725.71032 1068.0139,526.76161 345.85726,563.02775 -376.29936,599.29389 891.99862,518.46446 248.60522,599.67684 -394.78819,680.88923 679.25199,786.7604 89.453415,549.29424 -500.34514,311.82809 596.18716,827.91073 97.419573,461.09568 -401.34802,94.280622 326.39218,1166.3044 16.494474,488.23473 -293.40323,-189.83495 97.289476,923.55877 -2.4049802,311.51655 -102.09944,-300.52568 -278.40186,871.61153 -95.329162,212.55444 87.74353,-446.50263 -250.4677,893.14523 -48.990655,226.15597 152.48639,-440.83331 -248.05886,733.95488 97.680191,95.27725 443.41924,-543.40037 -344.10952,468.24389 163.52772,65.755399 671.16497,-336.7331 -479.12196,172.84339 264.94587,-34.179043 1009.0137,-241.20147 -386.76591,-332.64711 291.43876,15.098687 969.64345,362.8445 -174.74468,-326.85085 413.89099,51.203653 c 588.63561,378.054497 -536.95704,-268.052183 58.7783,49.319877 595.73541,317.37206 -339.52753,-541.8228 110.13026,51.1883 449.65775,593.01108 106.77323,-648.38879 5.38739,96.70978 z"
       transform="matrix(-0.26458333,0,0,-0.26458333,196.6974,196.39953)"
       inkscape:transform-center-x="4.5991012"
       inkscape:transform-center-y="3.6972142" />
    <g
       sodipodi:type="inkscape:box3d"
       id="g8016"
       style="opacity:1;fill:#4aec91;fill-opacity:1;stroke:#96e718;stroke-opacity:1"
       inkscape:perspectiveID="#perspective8014"
       inkscape:corner0="0.48739968 : 0.17109463 : 0 : 1"
       inkscape:corner7="-0.1825395 : 0.056780348 : 0.29794678 : 1">
      <path
         sodipodi:type="inkscape:box3dside"
         id="path8028"
         style="fill:#e9e9ff;fill-rule:evenodd;stroke:none;stroke-width:0.825903;stroke-linejoin:round"
         inkscape:box3dsidetype="11"
         d="m 116.2346,86.069293 67.85391,18.185667 V 179.5394 L 116.2346,133.10376 Z"
         points="184.08851,104.25496 184.08851,179.5394 116.2346,133.10376 116.2346,86.069293 " />
      <path
         sodipodi:type="inkscape:box3dside"
         id="path8018"
         style="fill:#353564;fill-rule:evenodd;stroke:none;stroke-width:0.825903;stroke-linejoin:round"
         inkscape:box3dsidetype="6"
         d="M 59.724304,98.357418 V 154.81354 L 116.2346,133.10376 V 86.069293 Z"
         points="59.724304,154.81354 116.2346,133.10376 116.2346,86.069293 59.724304,98.357418 " />
      <path
         sodipodi:type="inkscape:box3dside"
         id="path8026"
         style="fill:#afafde;fill-rule:evenodd;stroke:none;stroke-width:0.825903;stroke-linejoin:round"
         inkscape:box3dsidetype="13"
         d="M 59.724304,154.81354 105.99724,235.96595 184.08851,179.5394 116.2346,133.10376 Z"
         points="105.99724,235.96595 184.08851,179.5394 116.2346,133.10376 59.724304,154.81354 " />
      <path
         sodipodi:type="inkscape:box3dside"
         id="path8020"
         style="fill:#4d4d9f;fill-rule:evenodd;stroke:none;stroke-width:0.825903;stroke-linejoin:round"
         inkscape:box3dsidetype="5"
         d="M 59.724304,98.357418 105.99724,133.24194 184.08851,104.25496 116.2346,86.069293 Z"
         points="105.99724,133.24194 184.08851,104.25496 116.2346,86.069293 59.724304,98.357418 " />
      <path
         sodipodi:type="inkscape:box3dside"
         id="path8024"
         style="fill:#d7d7ff;fill-rule:evenodd;stroke:none;stroke-width:0.825903;stroke-linejoin:round"
         inkscape:box3dsidetype="14"
         d="M 105.99724,133.24194 V 235.96595 L 184.08851,179.5394 V 104.25496 Z"
         points="105.99724,235.96595 184.08851,179.5394 184.08851,104.25496 105.99724,133.24194 " />
      <path
         sodipodi:type="inkscape:box3dside"
         id="path8022"
         style="fill:#8686bf;fill-rule:evenodd;stroke:none;stroke-width:0.825903;stroke-linejoin:round"
         inkscape:box3dsidetype="3"
         d="M 59.724304,98.357418 105.99724,133.24194 V 235.96595 L 59.724304,154.81354 Z"
         points="105.99724,133.24194 105.99724,235.96595 59.724304,154.81354 59.724304,98.357418 " />
    </g>
    <path
       style="opacity:1;fill:#800080;fill-opacity:1;stroke:#96e718;stroke-width:2.38834;stroke-opacity:1"
       d="m 428.60636,932.48385 c -0.86719,-1.40314 -2.81144,-2.10329 -4.32055,-1.55589 -1.50911,0.54739 -5.87673,-0.31169 -9.70582,-1.90908 -6.06106,-2.52851 -3.58858,-2.90527 19.10672,-2.91149 14.33778,-0.004 35.74147,-0.68792 47.56375,-1.51998 11.82228,-0.83207 23.10719,-1.61033 25.07757,-1.72947 3.39684,-0.2054 26.27053,-3.58854 41.79594,-6.18185 3.94076,-0.65825 8.23978,-2.01931 9.55336,-3.02457 1.31359,-1.00527 5.97174,-2.50759 10.35144,-3.33849 15.63475,-2.96617 29.05617,-17.3522 29.05617,-31.14444 0,-3.27168 -1.0787,-6.61518 -2.39711,-7.43 -1.31841,-0.81482 -1.73927,-4.1025 -0.93525,-7.30597 1.01029,-4.02533 0.45969,-5.83577 -1.78249,-5.86105 -2.50755,-0.0283 -2.43076,-0.56235 0.33817,-2.35177 3.16623,-2.04617 3.1572,-2.31944 -0.0777,-2.35176 -2.72493,-0.0272 -3.79298,-3.08798 -4.1798,-11.97828 -0.29221,-6.71595 0.52565,-11.94169 1.86895,-11.94169 1.3137,0 2.26128,-0.80607 2.10572,-1.79126 -0.15555,-0.98519 -0.0162,-5.01551 0.30985,-8.95627 0.32598,-3.94076 1.52356,0.87563 2.66129,10.70309 1.13774,9.82747 3.73589,21.38166 5.77368,25.67598 5.45886,11.5037 7.08185,30.15729 3.39774,39.05152 -3.26892,7.89188 -20.50689,22.13913 -24.0998,19.9186 -1.14948,-0.71043 -2.08997,0.0256 -2.08997,1.63567 0,1.61004 -0.70718,2.22017 -1.57151,1.35584 -0.86432,-0.86432 -3.01383,-0.37447 -4.77667,1.08856 -1.76285,1.46303 -3.20518,1.85948 -3.20518,0.88101 0,-0.97848 -1.34344,-0.69681 -2.98542,0.62594 -2.90473,2.33998 -13.56302,5.20261 -25.67466,6.89577 -3.28396,0.45908 -10.26986,1.44891 -15.5242,2.19962 -39.03843,5.57757 -93.06152,7.41444 -95.63422,3.25171 z"
       id="path10539"
       transform="scale(0.26458333)" />
    <path
       style="opacity:1;fill:#800080;fill-opacity:1;stroke:#96e718;stroke-width:2.38834;stroke-opacity:1"
       d="m 406.69257,950.28247 c 1.52804,-1.52804 22.40208,-3.93516 62.61619,-7.22069 9.19511,-0.75125 18.33051,-1.32277 20.30089,-1.27005 10.00364,0.26768 56.08671,-5.42332 62.09683,-7.6686 1.97038,-0.7361 6.64321,-1.8547 10.38406,-2.48578 10.4195,-1.75777 37.79215,-15.24485 45.08964,-22.21662 3.58199,-3.42211 7.67001,-9.72865 9.08448,-14.01452 2.4859,-7.53237 1.86694,-24.56195 -1.06518,-29.30622 -3.32599,-5.38157 -4.04546,-28.07882 -1.1081,-34.95776 3.00275,-7.03207 3.08883,-6.87697 4.63928,8.35919 0.86887,8.53832 2.40828,18.21109 3.42091,21.49506 3.7109,12.03451 3.25612,33.08842 -0.89042,41.22161 -12.07433,23.6831 -44.93114,36.95707 -110.15644,44.50257 -29.42467,3.40396 -106.8971,6.04677 -104.41214,3.56181 z"
       id="path10615"
       transform="scale(0.26458333)" />
    <path
       style="opacity:1;fill:#800080;fill-opacity:1;stroke:#96e718;stroke-width:2.38834;stroke-opacity:1"
       d="m 438.09274,936.23838 c 5.16217,-2.00147 28.02827,-5.8536 50.81356,-8.56029 49.15425,-5.83909 68.54435,-10.79117 84.26914,-21.5217 14.54793,-9.92744 20.56131,-20.4466 23.82717,-41.68068 3.69407,-24.01822 5.02849,-29.75097 6.92516,-29.75097 2.50703,0 0.49393,48.2646 -2.14577,51.44524 -1.247,1.50255 -1.5601,3.43908 -0.69577,4.30341 0.86433,0.86433 0.2542,1.57151 -1.35585,1.57151 -1.61004,0 -2.33003,0.96648 -1.59997,2.14773 0.73005,1.18125 -2.47045,5.48226 -7.11224,9.5578 -8.61017,7.55983 -32.14667,20.66294 -32.14667,17.89651 0,-0.83976 -1.56505,-0.22797 -3.47789,1.35955 -1.91283,1.58751 -4.52545,2.23896 -5.80582,1.44765 -1.28036,-0.79131 -2.96073,-0.41485 -3.73415,0.83658 -0.77343,1.25143 -3.26589,2.25692 -5.5388,2.23442 -5.32598,-0.0527 -47.032,4.49276 -68.61774,7.47854 -9.19511,1.27189 -22.62952,2.8888 -29.85425,3.59313 l -13.13586,1.28062 z"
       id="path10654"
       transform="scale(0.26458333)" />
    <path
       style="opacity:1;fill:#800080;fill-opacity:1;stroke:#96e718;stroke-width:2.38834;stroke-opacity:1"
       d="m 377.35768,977.89411 c -26.07916,-2.07062 -38.94388,-4.69782 -65.67934,-13.4129 -27.90899,-9.09759 -41.2558,-16.52745 -55.02575,-30.63148 -21.94029,-22.47261 -23.73298,-47.86383 -5.73985,-81.29858 13.27282,-24.66353 12.46756,-28.82306 -7.56487,-39.07587 -22.9376,-11.73972 -44.11345,-26.82884 -72.58158,-51.71892 -25.80025,-22.55754 -40.08086,-32.11856 -47.97313,-32.11856 -2.18852,0 -13.86354,5.34434 -25.944488,11.87633 -37.782599,20.42844 -58.140023,20.93964 -86.8494816,2.18088 -14.6538329,-9.5748 -41.0476074,-39.50278 -41.0476074,-46.54399 0,-1.83608 -0.883256,-3.33832 -1.962792,-3.33832 -4.593609,0 -36.437953,-71.58349 -31.890285,-71.68676 0.88577,-0.0191 0.484054,-0.82617 -0.892702,-1.79125 -6.552446,-4.59314 -20.171564,-68.1674 -21.864734,-102.06496 -2.321467,-46.47619 3.919804,-69.23611 29.144606,-106.28112 13.86275,-20.35876 20.020241,-32.65608 32.568645,-65.04386 10.748785,-27.74293 41.882991,-87.88861 61.421963,-118.65619 30.609306,-48.19979 58.312271,-77.93251 84.729826,-90.93782 21.11292,-10.39386 34.40889,-11.33389 66.68281,-4.71449 26.67984,5.47205 27.10169,5.48361 48.38605,1.32617 40.15508,-7.84345 71.5686,-13.1233 100.30162,-16.85825 48.63892,-6.32249 81.31172,-12.61781 94.1496,-18.140515 10.86596,-4.674421 13.42992,-7.261573 22.07222,-22.271968 23.91894,-41.543652 45.12169,-51.020991 118.70237,-53.058365 23.15961,-0.641265 51.53737,-2.866322 63.0617,-4.94457 24.002,-4.328418 35.35717,-3.425338 50.77462,4.03812 27.45118,13.288884 70.96517,71.604691 114.91913,154.010268 32.59802,61.11528 35.47415,68.09992 47.26976,114.79414 6.21928,24.61977 8.03645,28.63775 16.55518,36.60542 5.68071,5.31327 7.32289,5.60056 23.58848,4.1266 24.53644,-2.22343 34.69527,1.50162 41.97878,15.39284 5.20791,9.93261 5.48083,12.53544 4.36648,41.64324 -3.00554,78.50733 -41.93005,191.22959 -75.8766,219.73249 -11.33886,9.52057 -30.27302,22.684 -32.62847,22.684 -1.32546,0 -3.02853,1.61212 -3.78466,3.5825 -0.7561,1.97039 -2.55493,3.58251 -3.99739,3.58251 -1.44246,0 -6.14532,2.68689 -10.45082,5.97085 -4.30551,3.28397 -8.9386,5.97085 -10.29575,5.97085 -1.35715,0 -3.79567,1.60031 -5.41893,3.55622 -1.62328,1.9559 -3.73582,3.0714 -4.69455,2.47888 -2.75165,-1.70062 -29.06922,29.95866 -33.69782,40.53753 -2.29897,5.25435 -4.82901,14.53006 -5.62232,20.61271 -4.78707,36.70474 -18.21823,54.73652 -57.51158,77.21132 -16.42218,9.39305 -33.37808,22.79377 -37.89839,29.95215 l -3.77045,5.97084 -0.0635,-5.81283 c -0.0767,-7.01831 18.12934,-25.32768 32.2178,-32.4006 5.23302,-2.62717 9.87284,-5.58275 10.3107,-6.56794 0.43788,-0.98519 2.35242,-1.79125 4.25456,-1.79125 1.90215,0 4.07707,-1.61213 4.83317,-3.58251 0.75612,-1.97038 2.90016,-3.58251 4.76457,-3.58251 5.09022,0 22.82875,-19.08429 28.96702,-31.16463 2.97112,-5.84723 5.83383,-14.39295 6.36163,-18.9905 1.21992,-10.62685 4.1779,-19.89896 10.66693,-33.43676 7.12248,-14.85934 22.19266,-36.09658 27.8238,-39.2099 2.5726,-1.42233 7.36435,-5.39387 10.64831,-8.82568 3.28397,-3.43178 11.08863,-8.48205 17.34367,-11.22278 6.25506,-2.74074 12.01013,-6.64396 12.78906,-8.67379 0.77891,-2.02985 2.30408,-3.14188 3.38927,-2.47119 1.08517,0.67067 2.65894,0.10963 3.49727,-1.24685 0.83833,-1.35644 2.52471,-1.84793 3.74754,-1.09217 1.22281,0.75574 2.22331,0.23597 2.22331,-1.15521 0,-1.39112 1.12011,-2.5293 2.48915,-2.5293 3.04396,0 6.82633,-3.05261 19.75322,-15.94215 14.56849,-14.52631 18.07345,-19.10621 19.7578,-25.81723 0.82928,-3.30408 2.52085,-6.00742 3.75906,-6.00742 1.23821,0 3.87706,-4.03032 5.86409,-8.95627 1.98702,-4.92595 5.69382,-13.51227 8.23731,-19.08069 2.54351,-5.56844 4.62454,-11.53331 4.62454,-13.25528 0,-1.722 1.28971,-4.42058 2.86601,-5.99689 1.5763,-1.5763 1.98208,-2.866 0.90174,-2.866 -1.08036,0 -0.89799,-1.34344 0.40523,-2.98543 2.52997,-3.18755 6.85229,-15.8638 8.75451,-25.67465 0.63673,-3.28397 1.75015,-8.38904 2.47429,-11.34461 2.25443,-9.20154 3.66264,-14.77026 4.83171,-19.10672 6.93476,-25.7234 8.86853,-39.30971 9.77316,-68.66477 0.64908,-21.06208 0.005,-27.93474 -3.2539,-34.65811 -6.79838,-14.03063 -7.93165,-15.30436 -10.29635,-11.57241 -1.62751,2.56854 -2.0608,2.42495 -2.08979,-0.69257 -0.0303,-3.27303 -2.14055,-3.76921 -12.57535,-2.95698 -6.89633,0.53678 -16.71946,1.63568 -21.82914,2.44201 -7.19485,1.13536 -9.78682,0.57891 -11.4914,-2.46702 -1.21058,-2.16316 -3.08908,-3.3842 -4.17446,-2.71341 -3.32288,2.05366 -16.65913,-27.58483 -17.42958,-38.73551 -0.11345,-1.64198 -1.04019,-2.98542 -2.05942,-2.98542 -1.01922,0 -1.43919,-2.14951 -0.93324,-4.77668 0.50594,-2.62717 0.13709,-4.77668 -0.81951,-4.77668 -0.9567,0 -1.89902,-1.88082 -2.09408,-4.17959 -1.21129,-14.27521 -3.5307,-26.01093 -6.42826,-32.52543 -11.26761,-25.33269 -16.58905,-36.2822 -18.14395,-37.33351 -0.97144,-0.6568 -5.23336,-8.18007 -9.47097,-16.71838 -12.24926,-24.68104 -18.77996,-36.78933 -21.60449,-40.05606 -1.44415,-1.67023 -3.74164,-6.23793 -5.10555,-10.15044 -1.36391,-3.91251 -3.33295,-7.11365 -4.37563,-7.11365 -1.04268,0 -2.57014,-2.68689 -3.39436,-5.97085 -0.82424,-3.28397 -2.55287,-5.97085 -3.84143,-5.97085 -1.28855,0 -2.34284,-1.21509 -2.34284,-2.70019 0,-1.4851 -3.76163,-7.93611 -8.35919,-14.33557 -4.59755,-6.39945 -8.35919,-12.449936 -8.35919,-13.445508 0,-0.995572 -2.45144,-4.486031 -5.44763,-7.756575 -2.9962,-3.270545 -9.08952,-11.051522 -13.54074,-17.291059 -4.4512,-6.239538 -9.1648,-11.344614 -10.47464,-11.344614 -1.30984,0 -1.77509,-0.606436 -1.03389,-1.347635 0.7412,-0.741198 -3.78831,-6.565329 -10.06561,-12.942514 -11.43988,-11.621938 -29.19279,-22.63373 -31.98612,-19.840392 -0.81944,0.819444 -1.4899,0.08418 -1.4899,-1.633916 0,-2.451475 -4.63961,-2.805178 -21.55651,-1.643373 -11.85608,0.814242 -23.40967,2.435858 -25.67465,3.60359 -2.26498,1.167732 -18.62731,2.355214 -36.36073,2.638849 -50.47751,0.807355 -72.4884,3.015691 -80.60647,8.087191 -1.64198,1.025775 -2.98542,1.132644 -2.98542,0.237484 0,-0.895159 -1.61213,-0.289612 -3.58251,1.345658 -1.97038,1.63527 -3.58251,2.180638 -3.58251,1.211927 0,-0.96871 -2.93907,0.164461 -6.53127,2.518168 -10.6605,6.985017 -24.51715,20.673352 -24.51715,24.219322 0,1.814302 -2.1495,5.605952 -4.77668,8.425893 -2.62717,2.819939 -4.77668,6.52846 -4.77668,8.241157 0,4.964193 -9.96952,15.159753 -19.7038,20.150557 -4.92595,2.52555 -8.95627,3.90109 -8.95627,3.05676 0,-0.84433 -1.34344,-0.4753 -2.98543,0.82008 -1.64198,1.29538 -4.59755,2.41543 -6.56793,2.489 -1.97038,0.0736 -6.26939,0.80864 -9.55336,1.63348 -3.28397,0.82484 -9.73249,2.03189 -14.33004,2.68233 -12.92851,1.82907 -27.03541,3.62361 -31.6455,4.02563 -2.29878,0.20046 -4.18043,0.94024 -4.18144,1.64395 -10e-4,0.70371 -4.03135,1.40677 -8.95627,1.56236 -4.92495,0.1556 -14.86558,1.00248 -22.0903,1.88196 -7.22473,0.87949 -16.89751,2.05537 -21.49506,2.61308 -9.59458,1.16387 -24.54652,3.50178 -31.94815,4.99547 -2.78911,0.56286 -7.758,1.53859 -11.04197,2.1683 -3.28396,0.6297 -8.65773,1.71283 -11.9417,2.40696 -17.81577,3.76568 -24.07097,4.52453 -38.21343,4.63585 -8.53832,0.0672 -19.82322,-0.77668 -25.07757,-1.87531 -5.25435,-1.09864 -17.89908,-2.38014 -28.09941,-2.84779 -28.56568,-1.30963 -41.00583,4.77163 -70.983169,34.69955 -11.183924,11.16549 -21.946537,22.85077 -23.916918,25.9673 -1.97038,3.11652 -4.92595,7.07008 -6.567934,8.78568 -1.641984,1.71559 -2.985425,3.77835 -2.985425,4.5839 0,0.80554 -2.149505,3.77185 -4.776679,6.59179 -2.627174,2.81994 -4.77668,6.53664 -4.77668,8.25932 0,1.7227 -0.949403,3.13217 -2.109785,3.13217 -1.16038,0 -2.759987,1.88081 -3.554683,4.17959 -0.794694,2.29878 -3.595509,7.40385 -6.224035,11.34462 -2.628525,3.94076 -6.112117,9.8519 -7.741318,13.13586 -1.629199,3.28397 -3.625947,6.50823 -4.437216,7.16502 -2.764558,2.23816 -40.418136,80.42259 -40.418136,83.92481 0,1.91864 -1.149236,4.63767 -2.553854,6.04228 -1.404621,1.40463 -2.838427,4.03777 -3.186236,5.85143 -0.629588,3.28301 -3.402745,10.07292 -10.613608,25.98681 -3.395242,7.49306 -18.840731,32.80609 -21.859738,35.8251 -3.544881,3.54487 -19.503813,33.43675 -17.851503,33.43675 0.715652,0 0.266141,1.93401 -0.998915,4.29777 -5.350226,9.997 -7.273379,41.90631 -4.275201,70.93494 1.445184,13.99239 1.938414,17.44558 4.946463,34.63092 3.68578,21.0573 17.021898,65.79893 21.178779,71.05311 1.299064,1.64198 1.632199,2.98542 0.7403,2.98542 -0.891902,0 -0.111775,2.95558 1.733638,6.56794 3.773613,7.38682 20.73302,41.08522 24.349943,48.38342 1.29668,2.61642 3.177497,4.75714 4.179595,4.75714 1.002099,0 1.821997,1.12011 1.821997,2.48915 0,3.07047 2.637241,6.23292 18.392619,22.05543 16.546702,16.61719 18.455141,18.10785 28.83075,22.51921 10.381982,4.41408 37.858343,6.47739 40.004935,3.00412 0.80868,-1.30847 2.396553,-1.80659 3.528607,-1.10695 1.132054,0.69964 2.733347,0.17985 3.558433,-1.15521 0.825083,-1.33501 3.586228,-2.4273 6.135879,-2.4273 2.54965,0 4.635726,-1.07475 4.635726,-2.38834 0,-1.31358 1.357788,-2.38834 3.017305,-2.38834 1.659518,0 8.376724,-3.60302 14.927124,-8.00671 9.07662,-6.10202 14.18244,-7.9152 21.46318,-7.62203 9.12847,0.36756 17.74244,2.89806 20.30089,5.96371 0.65679,0.787 8.11292,7.3139 16.56917,14.50424 8.45626,7.19034 17.13271,14.68547 19.281,16.65585 2.14829,1.97038 7.8557,6.80677 12.68313,10.74753 4.82744,3.94076 12.2723,10.13203 16.54411,13.75839 4.27183,3.62636 10.18514,7.23583 13.14071,8.02102 2.95557,0.78522 5.37377,2.23912 5.37377,3.2309 0,2.33143 25.99875,13.7448 32.24258,14.15443 2.62718,0.17243 7.16784,0.31177 10.09038,0.30984 3.97673,-0.002 5.83015,1.9415 7.36631,7.72685 1.35013,5.08473 1.16634,8.33091 -0.53702,9.48507 -1.42429,0.96509 -1.57814,1.77115 -0.34189,1.79126 1.23625,0.0191 0.16145,1.61452 -2.38834,3.54313 -2.54984,1.92858 -3.88134,3.54071 -2.95887,3.58251 0.92248,0.0418 -0.9421,2.90223 -4.14348,6.35659 -3.20138,3.45432 -7.65589,10.44022 -9.89895,15.5242 -2.24303,5.08397 -4.94616,9.24357 -6.00696,9.24357 -1.06078,0 -1.80143,0.80607 -1.64588,1.79126 0.15548,0.98519 0.0757,2.32863 -0.17745,2.98542 -3.28772,8.52929 -4.15624,23.88029 -1.84268,32.56905 4.05645,15.23419 21.76583,33.49451 41.14493,42.42489 7.88153,3.632 16.47955,7.61214 19.10672,8.84474 2.62718,1.2326 6.92619,2.69713 9.55336,3.25452 2.62718,0.55741 8.26963,2.07212 12.53879,3.36603 4.26915,1.29393 7.7621,1.85242 7.7621,1.2411 0,-0.61132 1.93107,-0.0781 4.2913,1.18514 2.3602,1.26315 9.07741,2.89367 14.92712,3.62335 5.84969,0.72969 14.39746,1.83248 18.99502,2.45063 4.59755,0.61815 17.38111,1.68841 28.40791,2.3784 21.10932,1.32087 29.39141,3.7491 12.78724,3.7491 -5.36583,0 -11.18741,0.37585 -12.93682,0.83523 -1.74944,0.45937 -13.39092,0.0246 -25.86999,-0.96625 z"
       id="path10693"
       transform="scale(0.26458333)" />
    <path
       style="opacity:1;fill:#800080;fill-opacity:1;stroke:#96e718;stroke-width:2.38834;stroke-opacity:1"
       d="m 896.88665,523.92606 c 0.96828,-3.11098 2.63281,-5.99445 3.69897,-6.40773 1.06616,-0.41325 1.34648,-2.29407 0.62294,-4.17959 -0.72354,-1.88551 -0.0624,-3.4282 1.46929,-3.4282 1.53165,0 2.13432,-1.05254 1.33925,-2.33898 -0.79506,-1.28644 -0.37228,-4.34444 0.93951,-6.79554 1.3118,-2.45111 2.95714,-7.04102 3.65633,-10.19981 10.38433,-46.91425 13.63153,-63.96373 15.51237,-81.44782 4.24128,-39.42638 -6.03321,-57.32723 -32.59363,-56.78665 -30.05271,0.61166 -34.21103,-0.63744 -40.11223,-12.0491 -2.01059,-3.88806 -3.63384,-7.61783 -3.60723,-8.28839 0.0266,-0.67056 -0.086,-1.75657 -0.25015,-2.41336 l -0.89563,-3.58251 c -0.32839,-1.31359 -0.81129,-2.65703 -1.0731,-2.98543 -2.10966,-2.6462 -8.73022,-45.08301 -7.18262,-46.03948 1.99772,-1.23466 4.67321,4.51281 4.67321,10.03896 0,10.06554 10.92583,38.15871 17.67935,45.45823 7.13282,7.70949 8.10493,8.01528 27.0983,8.52414 10.83504,0.29028 19.70175,1.33385 19.7038,2.31904 0.002,0.98519 0.80979,1.66398 1.79498,1.50843 5.58093,-0.8812 8.54091,1.34499 14.69875,11.05488 5.59105,8.81618 6.8483,13.47792 6.92434,25.67466 0.10248,16.44078 -3.24633,44.76012 -7.6932,65.05772 -10.44023,47.65407 -20.47382,80.39945 -25.10878,81.94442 -2.21042,0.73683 -2.56848,-0.54574 -1.29482,-4.63789 z"
       id="path10769"
       transform="scale(0.26458333)" />
    <path
       style="opacity:1;fill:#800080;fill-opacity:1;stroke:#96e718;stroke-width:2.38834;stroke-opacity:1"
       d="m 778.20726,335.46636 c -11.92135,-2.00834 -20.87994,-8.33302 -24.65454,-17.40586 -1.81353,-4.35912 -3.43022,-19.23946 -3.8072,-35.04224 -0.36036,-15.10625 -1.5464,-29.28975 -2.63563,-31.5189 -1.08924,-2.22914 -2.20753,-6.79684 -2.48508,-10.15044 -0.27755,-3.3536 -1.40841,-6.09745 -2.51301,-6.09745 -1.10461,0 -1.34415,-1.07476 -0.53231,-2.38834 0.81185,-1.31359 0.57352,-2.38834 -0.5296,-2.38834 -1.58705,0 -8.08196,-13.46653 -7.79769,-16.1677 0.0373,-0.35392 -2.14041,-3.01363 -4.83923,-5.91048 -11.67868,-12.53559 -21.41303,-42.82543 -21.45057,-66.74653 -0.0171,-10.91457 2.76043,-12.92692 8.62325,-6.24758 4.4228,5.03877 4.41811,5.09594 -0.27789,3.38469 -5.54559,-2.02085 -4.4321,-0.79154 10.37641,11.45569 5.70703,4.71995 9.64181,8.58171 8.74397,8.58171 -0.89785,0 0.88128,2.99153 3.95362,6.64783 5.50789,6.55478 12.09926,18.8355 20.14676,37.53646 2.26108,5.25435 9.87496,19.76351 16.91972,32.24259 20.79613,36.8382 29.22384,74.41619 20.71225,92.35302 -2.06578,4.35332 -4.62096,7.38053 -5.67818,6.72714 -1.05722,-0.6534 -2.2827,-0.33369 -2.72329,0.71047 -0.44059,1.04415 -4.73888,1.23507 -9.55176,0.42426 z m 9.01793,-18.06372 c 3.6018,-4.53924 2.73362,-37.36466 -1.02135,-38.61631 -1.57199,-0.524 -2.23572,-1.95986 -1.47495,-3.19081 0.76077,-1.23094 -1.37244,-7.16846 -4.74045,-13.19449 -3.36801,-6.02603 -5.42983,-12.07905 -4.58182,-13.45116 0.86232,-1.39527 0.39935,-1.78865 -1.05049,-0.8926 -1.42578,0.88119 -3.2674,0.50987 -4.09248,-0.82515 -0.82509,-1.33501 -3.66858,-2.4273 -6.31887,-2.4273 -4.03777,0 -4.70379,1.33398 -4.10957,8.23109 0.39004,4.5271 -0.10341,9.04365 -1.09654,10.03678 -2.75032,2.75031 0.94951,41.75912 4.65542,49.08403 5.72661,11.31894 17.03673,13.80863 23.8311,5.24592 z m -47.5967,-125.5891 c -0.76242,-1.90526 -1.32835,-1.33933 -1.44295,1.44295 -0.10371,2.51771 0.46077,3.92832 1.2544,3.1347 0.79362,-0.79363 0.87847,-2.85357 0.18856,-4.57765 z"
       id="path10808"
       transform="scale(0.26458333)" />
    <path
       style="opacity:1;fill:#800080;fill-opacity:1;stroke:#96e718;stroke-width:2.38834;stroke-opacity:1"
       d="m 495.35358,134.68813 c -3.65623,-4.04194 -4.46935,-8.2737 -4.1403,-21.5476 0.57079,-23.02544 6.78936,-35.217226 22.25697,-43.635753 6.51162,-3.544071 12.13617,-6.285872 12.49899,-6.092891 0.36282,0.192981 5.49606,-0.250829 11.4072,-0.986246 5.91115,-0.735417 35.83871,-1.798307 66.50569,-2.361978 l 55.75816,-1.024857 12.20475,6.375839 c 19.57989,10.228654 37.97468,41.130976 30.88736,51.889186 -3.51512,5.33578 -12.64282,6.17321 -21.49588,1.97215 -12.08517,-5.73479 -31.08317,-10.5444 -41.78384,-10.57817 -4.93985,-0.0155 -18.37427,2.04628 -29.85424,4.58193 -11.47998,2.53566 -25.68637,5.31114 -31.56976,6.16773 -5.88339,0.8566 -11.27986,1.91763 -11.99216,2.35786 -0.7123,0.44022 -6.10877,1.50478 -11.99216,2.36567 -5.88338,0.8609 -18.56349,4.19116 -28.17802,7.40058 -9.61452,3.20942 -18.64729,5.11447 -20.07282,4.23344 -1.54679,-0.95596 -1.90473,-0.49005 -0.88773,1.1555 2.99217,4.84142 -4.79243,2.98954 -9.55221,-2.27239 z m 27.69283,-6.17283 c 7.22472,-2.09481 14.74799,-4.3687 16.71837,-5.05309 1.97039,-0.68439 4.11989,-1.42998 4.77668,-1.65688 0.6568,-0.22689 2.8063,-1.05986 4.77668,-1.85101 1.97038,-0.79116 15.94217,-4.13062 31.04842,-7.42102 15.10625,-3.2904 30.69017,-6.71917 34.63093,-7.61948 13.05947,-2.98358 46.16478,-2.30348 57.91724,1.18982 0.32839,0.0976 0.86577,-0.004 1.19417,-0.2261 0.32839,-0.22197 3.08398,0.92736 6.12351,2.55407 4.04399,2.16428 6.37553,2.25297 8.69179,0.33065 4.71448,-3.91267 6.00666,-13.940956 1.99471,-15.480485 -1.8589,-0.713328 -2.71089,-2.379302 -1.89332,-3.702165 0.81758,-1.322866 0.2849,-2.405209 -1.18374,-2.405209 -1.46864,0 -2.07561,-0.962135 -1.34884,-2.138078 0.72677,-1.175944 -0.35267,-2.780481 -2.39877,-3.56564 -2.17086,-0.833039 -3.00033,-2.677902 -1.99171,-4.429858 0.95066,-1.651261 0.88613,-2.242707 -0.14339,-1.314324 -1.02952,0.928382 -5.49574,-1.076109 -9.92494,-4.454425 -8.9757,-6.8461 -3.84569,-6.586149 -94.05598,-4.766046 -37.06389,0.74781 -46.63763,1.411598 -54.33473,3.767258 -0.3284,0.100504 -1.40315,0.300873 -2.38834,0.445265 -9.34595,1.369761 -23.01764,21.135578 -21.77432,31.480177 0.34881,2.90211 -0.69258,7.69475 -2.31418,10.65032 -1.62161,2.95557 -2.01494,5.37377 -0.87407,5.37377 1.14087,0 2.07432,1.61213 2.07432,3.58251 0,1.97038 -1.02723,3.58251 -2.28273,3.58251 -1.26395,0 -1.09555,1.43045 0.37734,3.20517 1.46303,1.76285 2.09481,3.77042 1.40394,4.46129 -1.94436,1.94436 10.65087,-0.32599 25.18096,-4.539 z"
       id="path10847"
       transform="scale(0.26458333)" />
    <path
       style="opacity:1;fill:#800080;fill-opacity:1;stroke:#96e718;stroke-width:2.38834;stroke-opacity:1"
       d="m 517.05847,105.41445 c -2.79724,-6.694748 -2.96728,-9.774716 -0.802,-14.526978 4.20244,-9.223362 19.87917,-15.65477 38.15892,-15.65477 17.29789,0 42.99063,6.402768 38.02001,9.474784 -2.47712,1.530942 -2.47229,2.083254 0.0255,2.915842 4.5509,1.516966 0.72059,6.173539 -9.27093,11.270831 -4.83684,2.467561 -9.33162,4.526161 -9.98841,4.574651 -0.65679,0.0485 -4.41843,1.31907 -8.35919,2.82351 -8.30527,3.17063 -16.9512,4.87395 -32.86453,6.47459 -11.15372,1.1219 -11.43683,0.98238 -14.91935,-7.35246 z"
       id="path10886"
       transform="scale(0.26458333)" />
    <path
       style="opacity:1;fill:#800080;fill-opacity:1;stroke:#96e718;stroke-width:2.38834;stroke-opacity:1"
       d="m 237.67744,326.52963 c 0.34893,-3.57066 1.82665,-9.51764 3.28382,-13.21552 3.79463,-9.62969 3.27193,-24.55544 -1.00989,-28.83726 -2.01261,-2.01261 -7.65506,-4.3269 -12.53878,-5.14287 -12.84815,-2.14665 -14.64491,-3.07811 -6.35056,-3.29219 6.27924,-0.16207 20.10872,-7.06779 14.57421,-7.27761 -1.10196,-0.0418 0.78605,-3.39122 4.19557,-7.4432 3.40952,-4.05199 5.59113,-8.351 4.84803,-9.55336 -0.7431,-1.20236 0.0558,-2.20257 1.77529,-2.22269 2.27176,-0.0266 2.14707,-0.66944 -0.45614,-2.35177 -2.26575,-1.46424 -2.51276,-2.32863 -0.67204,-2.35176 1.7291,-0.0217 2.29143,-1.64977 1.38538,-4.01088 -1.0185,-2.65419 -0.60603,-3.4063 1.24178,-2.26429 1.80771,1.11723 2.27379,0.42512 1.34451,-1.99655 -0.78228,-2.0386 -0.26633,-3.70655 1.14657,-3.70655 1.4129,0 1.95375,-1.60307 1.2019,-3.56238 -0.75186,-1.95931 0.13002,-4.13685 1.95974,-4.83897 1.82971,-0.70213 3.49338,-3.48869 3.69704,-6.19235 0.20366,-2.70366 2.41155,-6.70595 4.90642,-8.89398 2.49487,-2.18803 4.07716,-5.3224 3.5162,-6.96528 -0.61657,-1.80577 0.3405,-2.46501 2.42009,-1.66699 4.39016,1.68466 3.69081,7.48226 -3.74028,31.00667 -7.50971,23.77336 -9.17742,40.37489 -4.07727,40.58818 1.97038,0.0824 3.38979,1.21652 3.15424,2.52025 -0.26074,1.44317 8.14763,2.26418 21.49506,2.09882 17.11016,-0.21198 26.05092,-1.69158 40.72396,-6.73938 26.01555,-8.94986 65.21535,-28.34757 108.94961,-53.91287 31.63659,-18.49348 37.20926,-21.0218 38.48439,-17.4604 0.90662,2.53207 0.21471,4.46712 -1.76532,4.93664 -1.79101,0.42471 -3.25638,1.83158 -3.25638,3.12637 0,1.2948 -0.96214,1.75954 -2.13809,1.03277 -1.17592,-0.72677 -2.78048,0.35267 -3.56562,2.39876 -0.78517,2.0461 -2.50991,3.05125 -3.83279,2.23367 -1.32285,-0.81757 -2.4052,-0.34832 -2.4052,1.0428 0,1.39111 -0.82436,2.2606 -1.8319,1.9322 -1.69919,-0.55381 -26.5407,14.21743 -29.21651,17.37269 -1.6811,1.98231 -16.17548,7.69622 -18.14017,7.15113 -0.89467,-0.24822 -2.31289,0.65902 -3.15161,2.01609 -3.00611,4.86398 -88.57185,45.18911 -88.57185,41.74184 0,-0.76782 -1.61213,-0.0581 -3.58251,1.57719 -1.97038,1.63527 -3.58251,2.17265 -3.58251,1.19417 0,-0.97848 -1.61213,-0.4411 -3.58251,1.19417 -1.97038,1.63527 -3.58251,2.44123 -3.58251,1.79101 0,-1.23601 -26.50417,5.72978 -34.42564,9.0477 -3.55513,1.48907 -4.14402,1.16082 -2.64898,-1.47656 1.16293,-2.05153 0.20129,-1.76939 -2.43421,0.71417 -4.28217,4.03532 -6.94807,14.7555 -3.07399,12.36118 2.68196,-1.65754 2.49234,0.80456 -0.49133,6.37959 -1.70426,3.18445 -1.70426,4.61967 0,4.61967 1.35981,0 2.45592,0.80606 2.4358,1.79125 -0.10158,4.97467 -5.02073,8.24298 -13.6589,9.07501 -9.19133,0.88531 -9.56414,0.65353 -8.95612,-5.56833 z m 7.75232,-49.92903 c -2.28347,-0.59778 -6.58248,-0.61947 -9.55336,-0.0482 -2.97089,0.57128 -1.1026,1.06037 4.15175,1.08688 5.25434,0.0265 7.68507,-0.4409 5.40161,-1.03868 z"
       id="path10925"
       transform="scale(0.26458333)" />
    <path
       style="opacity:1;fill:#800080;fill-opacity:1;stroke:#96e718;stroke-width:2.38834;stroke-opacity:1"
       d="m 244.58279,304.15406 c -0.71621,-1.15885 -2.18091,-1.56392 -3.25489,-0.90017 -2.64308,1.63352 -7.21598,-4.19778 -8.49334,-10.83059 -2.90943,-15.10746 30.82947,-55.15532 39.01907,-46.3154 0.8862,0.95657 0.26783,2.21902 -1.37415,2.80544 -1.64199,0.58642 -2.98543,2.65222 -2.98543,4.59065 0,1.93844 -1.07475,2.86021 -2.38834,2.04836 -1.31358,-0.81184 -2.38834,0.26292 -2.38834,2.38834 0,2.12543 -0.84221,3.3439 -1.87157,2.70772 -2.3901,-1.47716 -13.22882,11.92124 -14.99505,18.5363 -2.1613,8.09471 2.44274,20.12928 7.22263,18.87931 2.48932,-0.65097 4.0712,0.31653 4.0712,2.49 0,3.9327 -10.49696,6.941 -12.56179,3.60004 z"
       id="path10964"
       transform="scale(0.26458333)" />
    <path
       style="opacity:1;fill:#800080;fill-opacity:1;stroke:#96e718;stroke-width:2.38834;stroke-opacity:1"
       d="M 41.795946,681.96775 C 35.358969,679.28768 25.504237,668.42479 18.957989,656.79343 9.2443198,639.53421 7.1946299,635.33153 7.1797338,632.64331 7.1716135,631.183 3.9968221,623.00091 0.12458058,614.46085 -13.083869,585.33025 -19.52861,553.43094 -19.791817,515.88139 c -0.26692,-38.07943 0.729462,-41.29925 22.1724114,-71.6502 6.4963438,-9.1951 13.3830096,-21.55476 15.3037026,-27.4659 11.089904,-34.1304 28.86962,-76.39512 33.391388,-79.37573 1.518291,-1.00081 1.635848,-1.7861 0.27362,-1.82782 -1.431597,-0.0438 -1.355151,-0.77605 0.190828,-1.82783 1.418545,-0.96508 7.329686,-11.22276 13.135869,-22.79484 5.806185,-11.57209 12.228383,-22.85699 14.271553,-25.07757 2.043172,-2.22057 6.34119,-9.41117 9.551149,-15.97911 3.209962,-6.56793 6.65776,-12.55141 7.661773,-13.2966 1.004015,-0.7452 6.496993,-8.46743 12.206623,-17.1605 10.56717,-16.0888 24.70182,-31.09509 32.05432,-34.03098 7.64564,-3.05295 22.526,-3.99772 20.87438,-1.32534 -0.85742,1.38733 0.11606,2.52242 2.16327,2.52242 4.64021,0 27.52688,12.45953 27.5737,15.01115 0.0189,1.03141 -2.38378,0.61686 -5.33935,-0.92122 -5.3528,-2.7856 -5.35166,-2.77246 0.2921,3.36625 7.3458,7.99003 5.97819,12.96418 -8.99036,32.69895 -6.47619,8.53832 -11.4083,15.89683 -10.96024,16.35225 0.44806,0.45542 -3.48198,7.8479 -8.73341,16.42773 -6.30231,10.29675 -11.38391,23.0055 -14.94858,37.3854 -6.45708,26.0479 -8.81029,30.79553 -20.11,40.57217 -21.26809,18.40139 -61.599196,58.72937 -69.849966,69.84456 -20.625077,27.78547 -21.569065,48.31172 -3.677372,79.96133 8.971626,15.87042 56.202208,69.04745 61.326298,69.04745 1.19328,0 3.51199,2.14951 5.15269,4.77668 1.64069,2.62717 4.33669,4.77668 5.99109,4.77668 1.6544,0 2.76915,0.80606 2.47722,1.79125 -0.29192,0.98519 2.28336,6.62765 5.72285,12.53879 7.92205,13.61492 9.93358,20.38827 8.157,27.46672 -1.21003,4.82117 -3.37844,5.8638 -15.14277,7.28107 -19.10783,2.30195 -27.376773,6.20982 -41.818779,19.76348 -12.559058,11.78653 -25.114484,19.65826 -30.904536,19.37586 -1.707216,-0.0833 -5.253536,-1.04633 -7.880709,-2.14019 z"
       id="path11003"
       transform="scale(0.26458333)" />
    <path
       style="opacity:1;fill:#800080;fill-opacity:1;stroke:#96e718;stroke-width:2.38834;stroke-opacity:1"
       d="M 90.166809,551.05044 C 52.178752,506.02556 45.011307,473.42639 65.893231,440.64868 c 7.458252,-11.70698 58.300439,-63.94129 58.300439,-59.89677 0,4.67856 -9.45065,16.52489 -31.932951,40.02777 -23.77376,24.85296 -29.25074,33.53403 -31.144638,49.36456 -2.643795,22.0987 7.378277,45.55474 32.439589,75.92285 5.028616,6.09344 9.14294,12.21986 9.14294,13.61427 0,1.39442 1.75014,3.51473 3.88921,4.71181 2.24401,1.25581 2.88599,2.79654 1.51763,3.64223 -1.30437,0.80614 -9.376753,-6.83709 -17.938641,-16.98496 z"
       id="path11042"
       transform="scale(0.26458333)" />
    <path
       style="opacity:1;fill:#800080;fill-opacity:1;stroke:#96e718;stroke-width:2.38834;stroke-opacity:1"
       d="m 230.47479,768.69953 c -11.12273,-5.8014 -25.45046,-15.64378 -34.63093,-23.78959 -4.59755,-4.0794 -14.80771,-13.09871 -22.68923,-20.0429 -7.88152,-6.94419 -17.68639,-15.59924 -21.78859,-19.23343 -4.10221,-3.63419 -10.78755,-8.32911 -14.85632,-10.43316 -6.52135,-3.37232 -12.31605,-10.18579 -12.31605,-14.48134 0,-4.36547 27.68362,18.37962 67.07254,55.10736 3.39343,3.16416 7.16523,5.75302 8.38177,5.75302 1.21653,0 3.41147,1.92085 4.87764,4.26856 1.46617,2.34771 9.53223,7.7538 17.92459,12.01353 13.45767,6.83076 16.1485,7.43484 22.79581,5.11758 6.80978,-2.3739 7.47649,-3.47539 6.91014,-11.41645 -0.34475,-4.83397 -2.95894,-14.06021 -5.8093,-20.50275 -2.85037,-6.44253 -4.70357,-12.19261 -4.11824,-12.77794 1.88564,-1.88564 6.2846,2.05487 4.86255,4.35579 -0.75574,1.22282 -0.0568,2.22331 1.55327,2.22331 1.61004,0 2.26202,0.66532 1.44885,1.47849 -0.81317,0.81318 0.0923,3.04933 2.01224,4.96923 1.9199,1.9199 2.88004,4.47884 2.13365,5.68652 -0.74639,1.20769 -0.34648,2.19579 0.88869,2.19579 3.73654,0 8.02272,20.99961 5.31778,26.05384 -4.41372,8.2471 -17.81975,9.79233 -29.97086,3.45454 z"
       id="path11081"
       transform="scale(0.26458333)" />
    <path
       style="opacity:1;fill:#800080;fill-opacity:1;stroke:#96e718;stroke-width:2.38834;stroke-opacity:1"
       d="m 348.89961,947.91032 c -60.26445,-10.93056 -91.81708,-38.85971 -78.50101,-69.486 4.6703,-10.74145 14.07653,-22.2177 21.25109,-25.92781 10.70705,-5.53683 10.82007,-4.02306 0.36762,4.92385 -10.95477,9.37688 -19.75111,25.4099 -19.73765,35.97568 0.0198,15.54615 16.87909,31.22101 44.82686,41.67761 13.37009,5.00239 69.03574,15.04844 72.27864,13.04422 1.02378,-0.63273 4.37887,-0.1417 7.45575,1.09116 8.72326,3.49531 -26.81834,2.53249 -47.9413,-1.29871 z"
       id="path11120"
       transform="scale(0.26458333)" />
    <path
       style="opacity:1;fill:#800080;fill-opacity:1;stroke:#96e718;stroke-width:2.38834;stroke-opacity:1"
       d="m 799.80329,554.60602 c -5.32726,-4.499 -12.19712,-14.3308 -12.87338,-18.42374 -0.10852,-0.6568 -3.2224,-7.10532 -6.91973,-14.33004 -9.48029,-18.52488 -17.77689,-28.90573 -22.48078,-28.12834 -2.20451,0.36434 -3.73952,-0.68101 -3.41112,-2.323 0.32839,-1.64198 -0.83592,-2.98542 -2.58737,-2.98542 -1.75145,0 -3.30541,-1.34344 -3.45324,-2.98542 -2.68552,-29.8276 -1.20595,-35.58139 6.60216,-25.67466 2.5883,3.28397 4.7299,7.28669 4.75911,8.89494 0.11498,6.33108 12.55077,9.67455 28.71318,7.71978 8.53831,-1.03266 19.28584,-2.21937 23.8834,-2.63713 4.59755,-0.41776 9.76357,-2.65887 11.48004,-4.98024 3.3576,-4.54085 8.98395,-5.96065 6.2794,-1.58459 -0.89605,1.44984 1.19002,0.78885 4.63572,-1.46886 3.4457,-2.25771 6.26491,-5.1195 6.26491,-6.35953 0,-1.24004 1.08235,-1.58569 2.40521,-0.76811 1.32287,0.81757 3.04761,-0.18758 3.83277,-2.23367 0.78516,-2.04609 2.31544,-3.17144 3.40061,-2.50076 1.08518,0.67068 2.64812,0.12713 3.47321,-1.20789 2.15852,-3.49256 17.04836,-3.02049 17.60426,0.55813 3.21751,20.71272 2.94519,26.09114 -1.81936,35.93339 -2.75731,5.69585 -5.0133,11.52218 -5.0133,12.94739 0,8.89649 -20.20561,42.53646 -31.00969,51.62749 -9.79154,8.23904 -24.61484,8.63865 -33.76601,0.91028 z m 11.20841,-34.01604 c 2.32362,-12.38594 -0.32003,-19.40141 -8.3683,-22.20705 -9.43556,-3.28926 -13.23278,1.17369 -11.02259,12.95504 1.62572,8.66583 12.10209,21.05879 15.84599,18.74493 1.09745,-0.67827 2.69265,-4.95008 3.5449,-9.49292 z"
       id="path11159"
       transform="scale(0.26458333)" />
    <path
       style="opacity:1;fill:#800080;fill-opacity:1;stroke:#96e718;stroke-width:2.38834;stroke-opacity:1;filter:url(#filter11255)"
       d="m 620.96834,328.39672 c -1.97038,-1.27336 -6.59146,-2.33166 -10.26905,-2.35177 -3.6776,-0.0201 -9.82498,-1.65952 -13.66084,-3.64312 -3.83586,-1.9836 -7.81281,-3.42511 -8.83767,-3.20334 -1.02485,0.22176 -3.4755,-0.24172 -5.44588,-1.02996 -1.97038,-0.78824 -11.10578,-2.97188 -20.30089,-4.85253 -9.19511,-1.88065 -33.37705,-7.77442 -53.73764,-13.09728 -20.3606,-5.32285 -39.70615,-9.64863 -42.99012,-9.61285 -10.7675,0.11733 -45.5577,-4.58056 -47.27845,-6.38424 -0.92538,-0.96998 0.33181,-2.98099 2.79376,-4.46891 2.46195,-1.48792 8.74347,-6.19826 13.95892,-10.46741 5.21546,-4.26916 10.33749,-7.76211 11.38229,-7.76211 3.78053,0 31.25063,-21.68349 30.01104,-23.68918 -1.21729,-1.96962 6.93505,-6.64584 20.72926,-11.89039 4.1778,-1.5884 6.95576,-1.62899 7.89127,-0.11531 0.79406,1.28483 2.49527,1.68617 3.78046,0.89188 1.28519,-0.79429 9.05774,5.11704 17.27233,13.1363 8.21459,8.01925 17.31694,16.2484 20.22745,18.287 2.9105,2.03859 4.5704,4.87381 3.68867,6.30048 -0.91193,1.47554 -0.50148,1.91307 0.95199,1.01478 2.07164,-1.28034 14.526,6.88847 19.67796,12.90677 0.65679,0.76724 6.9794,5.92618 14.05024,11.46431 7.07083,5.53814 14.92459,12.69905 17.4528,15.91314 2.5282,3.21409 5.34099,5.73713 6.25065,5.60675 4.35668,-0.62443 8.24837,0.50112 6.78666,1.96283 -0.89883,0.89882 1.81976,5.19784 6.0413,9.55336 7.35145,7.58477 7.1331,10.41619 -0.42651,5.5308 z"
       id="path11198"
       transform="scale(0.26458333)" />
    <path
       style="opacity:1;fill:#800080;fill-opacity:1;stroke:#96e718;stroke-width:2.38834;stroke-opacity:1"
       d="m 358.31583,295.00005 c -2.31203,-1.42891 -2.32628,-2.22497 -0.0649,-3.6226 2.22985,-1.37812 2.1669,-2.2433 -0.27293,-3.75119 -1.74418,-1.07797 -2.66499,-2.46068 -2.04624,-3.0727 0.61875,-0.61203 18.85843,-9.73484 40.53261,-20.27293 40.26193,-19.57554 49.53205,-25.9451 76.02345,-52.23616 8.31644,-8.25354 17.03821,-15.00644 19.38172,-15.00644 2.3435,0 6.94882,2.1143 10.23403,4.69845 3.28521,2.58415 6.65441,4.01715 7.48711,3.18445 1.38798,-1.38798 2.28115,3.20958 0.91691,4.71975 -0.32839,0.36353 4.08675,4.89252 9.81143,10.06443 5.72468,5.1719 9.21093,9.80265 7.74722,10.29056 -1.4637,0.4879 -1.87962,2.13874 -0.92425,3.66853 3.46902,5.55475 2.97005,11.32843 -1.11354,12.88514 -2.29693,0.87561 -6.79012,4.00805 -9.98486,6.96097 -3.19474,2.95292 -6.68769,4.82566 -7.7621,4.16163 -1.07442,-0.66403 -1.95349,0.10999 -1.95349,1.72003 0,1.61004 -0.70718,2.22017 -1.57151,1.35584 -0.86433,-0.86433 -3.01383,-0.37448 -4.77668,1.08855 -5.50941,4.57241 -3.49918,-1.23906 2.76568,-7.99543 3.28397,-3.54161 5.97085,-7.44597 5.97085,-8.67634 0,-1.23038 1.6375,-2.86542 3.63889,-3.63343 7.76183,-2.97849 -0.88838,-21.12289 -12.11897,-25.42034 -5.68388,-2.17497 -18.28651,-0.31062 -16.57877,2.45255 1.23811,2.00331 -7.34897,11.4443 -19.95567,21.94011 -4.25845,3.5454 -7.70793,7.30703 -7.66551,8.35919 0.1062,2.63499 -22.69188,18.62779 -35.26549,24.73864 -5.67846,2.75977 -11.91411,4.40776 -13.857,3.6622 -2.27053,-0.87128 -2.92162,-0.3671 -1.82251,1.4113 1.14201,1.84781 0.38989,2.26028 -2.2643,1.24177 -2.2686,-0.87054 -3.9743,-0.36138 -3.9743,1.18635 0,1.4913 -0.63866,2.07278 -1.41925,1.29219 -0.78059,-0.78059 -6.30349,1.30759 -12.2731,4.64039 -13.49787,7.53578 -22.98429,10.35032 -26.84456,7.96454 z"
       id="path11294"
       transform="scale(0.26458333)" />
    <path
       style="opacity:1;fill:#800080;fill-opacity:1;stroke:#96e718;stroke-width:2.38834;stroke-opacity:1"
       d="m 382.55771,271.7709 c -8.70812,-3.55328 -14.62994,-14.53686 -9.53522,-17.68557 1.68975,-1.04432 3.81392,-0.60653 4.83267,0.99601 1.29799,2.0418 1.83863,1.83503 1.89086,-0.72316 0.0597,-2.92219 0.45159,-2.98525 2.12637,-0.34209 1.57333,2.48303 2.47189,2.56298 3.84448,0.34209 1.37259,-2.22089 2.27115,-2.14093 3.84448,0.3421 1.54556,2.43922 2.07131,2.05937 2.12637,-1.53627 0.0607,-3.96213 0.46794,-4.16577 2.38834,-1.19417 1.96902,3.04684 2.32066,3.0647 2.35177,0.11942 0.0284,-2.69352 0.67346,-2.8262 2.90258,-0.59708 1.5763,1.5763 5.06925,2.88246 7.7621,2.90258 4.03616,0.0301 4.26688,0.4432 1.31359,2.35176 -8.41319,5.43702 2.36313,1.6189 15.3565,-5.44091 9.92749,-5.39399 17.02946,-11.62287 23.75065,-20.83082 5.27357,-7.22473 7.76723,-11.66083 5.54147,-9.85801 -4.84239,3.92224 -5.22225,0.7279 -0.90337,-7.59674 2.21359,-4.26669 4.12276,-5.45383 6.4539,-4.01311 1.82074,1.12528 4.21488,1.48697 5.32034,0.80377 1.10545,-0.68321 3.46183,-0.0372 5.2364,1.43556 1.77457,1.47276 4.14568,2.51276 5.26914,2.31112 1.12346,-0.20165 3.65478,-0.16382 5.62516,0.0841 2.55805,0.32182 2.21656,1.03767 -1.19417,2.50331 -4.5578,1.95855 -4.53044,2.0603 0.59709,2.22047 2.95557,0.0923 5.37376,1.01247 5.37376,2.04476 0,3.98222 -46.0844,40.77141 -58.87823,47.00251 -11.94505,5.8177 -34.31485,8.06433 -43.39703,4.35841 z"
       id="path11333"
       transform="scale(0.26458333)" />
    <path
       style="opacity:1;fill:#800080;fill-opacity:1;stroke:#96e718;stroke-width:2.38834;stroke-opacity:1"
       d="m 379.91829,278.21187 c -11.73859,-2.76599 -19.70147,-14.67396 -13.77532,-20.6001 0.91374,-0.91375 1.66135,-0.31792 1.66135,1.32407 0,1.64198 1.34344,2.53284 2.98543,1.97968 1.64198,-0.55316 4.14154,0.56302 5.55457,2.4804 3.47749,4.7187 23.51333,5.9404 32.86053,2.0037 4.15824,-1.7513 13.47158,-8.79809 20.69631,-15.65953 7.22472,-6.86143 17.20415,-14.58166 22.17649,-17.15607 4.97235,-2.5744 8.40303,-5.71238 7.62375,-6.9733 -1.9378,-3.13541 4.74235,-12.26195 7.35451,-10.04786 1.15246,0.97683 0.61797,-0.15031 -1.18776,-2.50476 -5.32322,-6.94085 0.54693,-10.55457 6.8714,-4.23009 2.80644,2.80644 6.02556,4.53222 7.15359,3.83506 1.12803,-0.69716 2.65402,0.30397 3.39109,2.22474 0.73707,1.92077 0.25558,4.16259 -1.06998,4.98183 -1.32556,0.81924 -2.01257,2.68213 -1.52669,4.13975 0.83854,2.51564 -3.20718,5.80224 -34.06803,27.6756 -7.22472,5.1207 -15.73213,11.59045 -18.90535,14.37723 -4.92553,4.32569 -33.44799,15.05701 -38.06929,14.32323 -0.84682,-0.13447 -5.22379,-1.11257 -9.7266,-2.17358 z"
       id="path11372"
       transform="scale(0.26458333)" />
    <path
       style="opacity:1;fill:#800080;fill-opacity:1;stroke:#96e718;stroke-width:2.38834;stroke-opacity:1"
       d="m 360.04222,274.50867 c -8.86671,-4.55106 -16.1213,-8.80991 -16.1213,-9.46412 0,-1.97696 20.07572,1.72967 23.34403,4.31007 1.67373,1.32144 3.72684,1.71893 4.56246,0.88331 0.83563,-0.83563 3.0327,0.64133 4.88238,3.28212 1.84968,2.6408 4.38201,4.1717 5.62738,3.40202 1.24538,-0.76969 4.86403,-1.87085 8.04146,-2.44702 12.18082,-2.20881 26.84584,-10.49219 38.32836,-21.64938 6.56793,-6.38184 17.50941,-15.31987 24.31439,-19.86227 6.80498,-4.5424 11.89252,-9.03584 11.30565,-9.98541 -0.58687,-0.94958 0.0764,-2.43321 1.47401,-3.29695 1.45006,-0.89619 1.97502,-5.13201 1.2227,-9.86579 -0.82502,-5.19124 -0.43096,-7.7469 1.05307,-6.82972 1.36551,0.84393 1.76808,-0.10663 0.94907,-2.24095 -1.0553,-2.75005 0.14245,-3.70655 4.6414,-3.70655 6.78981,0 15.11319,10.03034 14.8642,17.91255 -0.28904,9.1501 -4.72509,13.31182 -35.9411,33.71842 -9.1951,6.01105 -17.80539,12.16837 -19.13396,13.68294 -4.85863,5.53885 -18.30962,13.8629 -27.82805,17.2212 -15.58764,5.49964 -27.60565,4.16447 -45.58615,-5.06447 z"
       id="path11411"
       transform="scale(0.26458333)" />
    <path
       style="opacity:1;fill:#800080;fill-opacity:1;stroke:#96e718;stroke-width:2.38834;stroke-opacity:1"
       d="m 363.61791,276.95323 c -6.90009,-3.4709 -11.89645,-7.36109 -11.10303,-8.64486 0.79341,-1.28377 2.94599,-1.75721 4.7835,-1.0521 1.83751,0.70512 3.34092,0.0744 3.34092,-1.40151 0,-1.47595 2.08179,-0.79956 4.62619,1.5031 2.5444,2.30265 5.76865,3.48054 7.16502,2.61754 1.39635,-0.86299 2.53883,-0.55288 2.53883,0.68914 0,3.92531 15.22682,4.81641 22.68923,1.32782 3.94076,-1.84226 13.86839,-9.51917 22.0614,-17.0598 8.19301,-7.54064 16.25366,-14.03974 17.91255,-14.44246 1.65889,-0.40272 7.85255,-3.20315 13.76369,-6.22319 5.91114,-3.02003 13.7031,-5.34193 17.31547,-5.15976 3.61236,0.18216 6.56793,-0.91613 6.56793,-2.44065 0,-4.68931 5.78486,-8.07913 9.63346,-5.64503 2.97967,1.88454 2.91674,2.22061 -0.42166,2.25172 -2.15824,0.0201 -4.64011,1.91739 -5.51526,4.21617 -1.27582,3.35119 -0.9951,3.58788 1.41631,1.19417 1.65413,-1.64198 4.67337,-2.95124 6.70943,-2.90947 5.65163,0.11597 -2.92839,6.05906 -22.56981,15.63337 -9.19511,4.4822 -22.19222,12.30989 -28.88248,17.39487 -32.57854,24.76155 -50.10843,29.17882 -72.03169,18.15093 z"
       id="path11450"
       transform="scale(0.26458333)" />
    <path
       style="opacity:1;fill:#800080;fill-opacity:1;stroke:#96e718;stroke-width:2.38834;stroke-opacity:1"
       d="m 359.18425,273.17839 c -16.96043,-8.98285 -18.69919,-10.50433 -9.29248,-8.13127 3.94076,0.99415 9.31453,2.08293 11.9417,2.41951 2.62718,0.33659 4.77668,0.87745 4.77668,1.20191 0,0.32446 7.11814,0.87783 15.81808,1.22971 l 15.81809,0.63977 16.41763,-13.08354 c 9.0297,-7.19596 16.9581,-13.90493 17.61867,-14.90884 0.66058,-1.00392 5.23137,-3.13914 10.15732,-4.74496 4.92595,-1.60581 8.95627,-3.91106 8.95627,-5.12277 0,-1.21172 0.80607,-2.01557 1.79126,-1.78633 4.27071,0.99372 14.92712,-6.33763 14.92712,-10.26949 0,-2.3701 2.41533,-5.60193 5.36741,-7.18183 3.30798,-1.77037 4.22436,-3.25356 2.38834,-3.86557 -1.63849,-0.54616 -2.97907,-2.04164 -2.97907,-3.32328 0,-1.28165 1.1541,-1.617 2.56466,-0.74522 1.41056,0.87177 1.18256,-0.62805 -0.50667,-3.33294 -4.93485,-7.90194 -0.68827,-8.53997 8.42764,-1.26622 7.47069,5.961 8.32603,7.7704 7.53847,15.94688 -0.4886,5.07262 -1.25095,9.46301 -1.69412,9.75643 -9.61131,6.36343 -17.94838,11.18727 -30.66002,17.73993 -8.53831,4.40137 -23.06331,13.09682 -32.27777,19.32322 -29.06312,19.63853 -43.97715,21.75117 -67.09921,9.5049 z"
       id="path11489"
       transform="scale(0.26458333)" />
    <path
       style="opacity:1;fill:#800080;fill-opacity:1;stroke:#96e718;stroke-width:2.38834;stroke-opacity:1"
       d="m 370.19266,276.96084 c -4.59755,-1.60848 -8.08053,-4.15774 -7.73995,-5.66502 0.34058,-1.50728 -1.00286,-3.36297 -2.98542,-4.12375 -1.98257,-0.76078 -3.60467,-2.34301 -3.60467,-3.51605 0,-2.69117 5.32599,-1.71923 7.94393,1.44969 1.27212,1.53985 2.41844,1.28275 3.22665,-0.72367 0.9904,-2.45868 1.82969,-2.368 3.99777,0.43192 3.06011,3.95191 5.85704,4.56825 18.8655,4.15724 4.98282,-0.15744 10.8462,-2.13726 13.21622,-4.46257 2.34298,-2.29878 9.06018,-7.40386 14.92713,-11.34462 5.86694,-3.94076 11.97643,-8.77714 13.57663,-10.74752 1.60021,-1.97039 2.94365,-2.81464 2.98543,-1.87613 0.0418,0.9385 5.18103,-0.50136 11.42057,-3.1997 6.23954,-2.69834 12.95674,-5.2545 14.92712,-5.68036 1.97038,-0.42586 5.63964,-1.58683 8.1539,-2.57994 3.43405,-1.35642 4.08888,-1.02493 2.63199,1.33236 -1.17746,1.90517 0.98555,1.41021 5.50557,-1.25983 4.09474,-2.41882 6.92276,-4.92008 6.28448,-5.55835 -0.63827,-0.63828 -2.30796,-0.0131 -3.71043,1.38944 -1.40247,1.40247 -4.63146,2.00561 -7.17555,1.34031 -3.62511,-0.94799 -4.03488,-1.9214 -1.89449,-4.50041 1.50211,-1.80994 1.89556,-3.29079 0.87434,-3.29079 -1.02123,0 -0.27861,-1.88082 1.65025,-4.1796 4.11697,-4.90651 4.10666,-7.02385 -0.0709,-14.55604 -2.92905,-5.28113 -2.78834,-5.50058 2.47297,-3.85666 3.06831,0.95871 8.78896,5.07872 12.71255,9.15558 6.02247,6.25773 6.48755,7.53693 2.98543,8.21138 -3.90671,0.75236 -6.19394,5.54832 -2.35713,4.94251 4.77583,-0.75408 5.16376,0.77141 1.58507,6.23317 -2.14435,3.27269 -4.856,5.35877 -6.02591,4.63573 -1.1699,-0.72304 -2.12709,-0.20715 -2.12709,1.14642 0,1.35357 -9.23799,6.93248 -20.52886,12.39757 -11.29087,5.4651 -26.06872,13.66839 -32.83967,18.22955 -27.17963,18.30918 -41.3923,22.18754 -58.88344,16.06814 z m 112.55662,-60.21901 c 2.9002,-3.69804 2.83978,-3.83801 -0.5244,-1.21489 -2.09124,1.63059 -4.68175,2.16796 -5.75668,1.19417 -1.07492,-0.97379 -1.1813,-0.42709 -0.23638,1.21489 2.22065,3.85882 2.61067,3.78736 6.51746,-1.19417 z"
       id="path11528"
       transform="scale(0.26458333)" />
    <path
       style="opacity:1;fill:#800080;fill-opacity:1;stroke:#96e718;stroke-width:2.38834;stroke-opacity:1"
       d="m 369.81683,278.30202 c -7.53291,-2.27569 -21.11923,-10.04256 -21.11923,-12.0732 0,-1.37719 14.27828,-1.27785 16.71838,0.11632 0.6568,0.37526 2.26893,0.86734 3.58251,1.09351 1.31359,0.22618 6.68735,1.66336 11.9417,3.19376 6.17843,1.79956 9.83636,1.94238 10.35443,0.4043 0.44059,-1.30804 1.75247,-1.79026 2.91529,-1.0716 3.07947,1.90323 13.97113,-4.2814 28.77013,-16.33658 7.13476,-5.81193 18.80992,-13.5253 25.94481,-17.14082 12.66602,-6.41836 20.98595,-14.31939 24.53133,-23.29618 0.96749,-2.44966 0.82058,-3.87391 -0.32647,-3.16499 -4.1438,2.56101 -7.91818,-5.17574 -5.09682,-10.4475 1.45096,-2.71114 3.24393,-4.92935 3.98438,-4.92935 4.0881,0 17.34817,8.01629 16.2362,9.8155 -0.72274,1.16941 0.19794,2.1262 2.04594,2.1262 2.13642,0 3.43845,2.75918 3.57543,7.57683 0.28117,9.88897 -8.93563,18.27462 -33.83194,30.78108 -10.35057,5.19952 -25.93448,14.12612 -34.63092,19.83689 -23.34535,15.33038 -37.88669,18.86555 -55.59515,13.51583 z"
       id="path11567"
       transform="scale(0.26458333)" />
    <path
       style="opacity:1;fill:#800080;fill-opacity:1;stroke:#96e718;stroke-width:2.38834;stroke-opacity:1"
       d="m 421.82664,261.98382 c -1.46546,-2.37116 -0.7252,-7.90064 1.54329,-11.5279 3.8778,-6.20049 44.82339,-21.69046 49.57427,-18.75425 1.28447,0.79385 2.33541,0.17358 2.33541,-1.37837 0,-2.09253 0.93342,-2.04707 3.61196,0.17593 2.74732,2.28007 2.96318,3.7794 0.90173,6.26329 -1.49062,1.79609 -4.05414,3.26563 -5.6967,3.26563 -4.52154,0 -24.34224,9.18515 -36.61224,16.96655 -11.60203,7.35779 -13.76738,8.04775 -15.65772,4.98912 z"
       id="path11606"
       transform="scale(0.26458333)" />
    <path
       style="opacity:1;fill:#800080;fill-opacity:1;stroke:#96e718;stroke-width:2.38834;stroke-opacity:1"
       d="m 360.04222,271.64927 c -6.23954,-3.53892 -11.34462,-7.11441 -11.34462,-7.94553 0,-2.47316 20.14957,-1.19234 22.05557,1.40197 1.03459,1.4082 1.7995,0.91813 1.86389,-1.19417 0.0891,-2.92358 0.53818,-2.8473 2.44153,0.41473 1.7838,3.05713 4.88171,3.77932 13.17196,3.07065 11.10501,-0.94928 19.32441,-5.50252 35.10955,-19.44942 4.92974,-4.35564 11.18022,-7.91935 13.88997,-7.91935 2.70975,0 7.13924,-1.18406 9.84331,-2.63124 6.36702,-3.40752 16.26453,-4.47973 16.26453,-1.76196 0,1.16324 2.68688,0.35446 5.97085,-1.79728 3.94128,-2.58242 5.97085,-2.95914 5.97085,-1.10827 0,1.54218 1.07475,2.13974 2.38834,1.3279 1.31359,-0.81185 2.38834,-0.46829 2.38834,0.76346 0,1.23175 -3.49295,3.6144 -7.7621,5.29478 -18.13044,7.13632 -29.4931,12.78909 -49.08246,24.41787 -18.5927,11.03713 -22.4082,12.39743 -36.30069,12.94188 -13.13134,0.51462 -17.27284,-0.38339 -26.86882,-5.82602 z"
       id="path11645"
       transform="scale(0.26458333)" />
    <path
       style="opacity:1;fill:#800080;fill-opacity:1;stroke:#96e718;stroke-width:2.38834;stroke-opacity:1"
       d="m 374.96934,276.83557 c -10.95546,-3.93232 -23.78134,-11.15695 -22.75502,-12.81756 2.02274,-3.27287 10.81077,-4.62885 10.84989,-1.67413 0.0208,1.56849 0.99723,1.2428 2.25986,-0.75374 1.8901,-2.98873 2.47132,-2.86924 3.87831,0.79733 1.30172,3.39224 2.0861,3.63287 3.67442,1.12724 1.24666,-1.96666 2.03339,-2.145 2.05597,-0.46605 0.0201,1.49579 3.8882,3.44219 8.59574,4.32533 6.69495,1.25598 11.24663,0.22584 20.89798,-4.7296 6.78634,-3.48441 13.41355,-7.68385 14.72714,-9.33206 1.31358,-1.64822 6.14997,-4.90366 10.74753,-7.23431 4.59755,-2.33065 9.97131,-5.57573 11.94169,-7.21128 3.08707,-2.56247 14.18456,-6.27551 17.92683,-5.99803 0.67647,0.0502 4.71163,-1.75275 8.96702,-4.00646 10.30656,-5.4585 13.75192,-5.84968 17.60297,-1.99863 2.71305,2.71305 2.08744,3.73424 -3.91555,6.39142 -3.92948,1.73936 -7.14451,3.97486 -7.14451,4.96779 0,0.99292 -1.13372,1.80532 -2.51937,1.80532 -4.44728,0 -24.32266,9.79518 -47.55542,23.43674 -17.99482,10.566 -25.06237,13.41619 -34.63093,13.96591 -6.61212,0.37987 -13.63417,0.11201 -15.60455,-0.59523 z"
       id="path11684"
       transform="scale(0.26458333)" />
  </g>
</svg>
